<?xml version="1.0" encoding="UTF-8"?>
<svg width="12px" height="10px" viewBox="0 0 12 10" version="1.1" xmlns="http://www.w3.org/2000/svg" xmlns:xlink="http://www.w3.org/1999/xlink">
    <!-- Generator: Sketch 57.1 (83088) - https://sketch.com -->
    <title>Combined Shape</title>
    <desc>Created with Sketch.</desc>
    <g id="PsicoLab-App" stroke="none" stroke-width="1" fill="none" fill-rule="evenodd">
        <g id="Desktop-HD" transform="translate(-677.000000, -45.000000)" fill="#FFFFFF" fill-rule="nonzero">
            <g id="NavBar">
                <g id="Group-4" transform="translate(490.000000, 18.000000)">
                    <g id="Btn---Dropdown" transform="translate(192.482776, 32.526331) scale(-1, 1) rotate(-89.000000) translate(-192.482776, -32.526331) translate(187.482776, 26.526331)">
                        <path d="M9.43178818,0.677689848 C9.44570144,0.700534876 9.4587534,0.723893456 9.47091655,0.747716384 C9.76679513,1.32722838 9.56592428,2.03685116 9.01020049,2.37530256 L3.60188319,5.6689689 L9.01020049,8.96299487 C9.52887603,9.27888285 9.73843522,9.91810234 9.52351099,10.4730924 L9.47091655,10.5905811 C9.4587534,10.614404 9.44570144,10.6377626 9.43178818,10.6606076 C9.12432756,11.1654457 8.46582931,11.3254518 7.96099117,11.0179912 L7.96099117,11.0179912 L1.203853,6.90270422 C0.769816147,6.63836359 0.55224228,6.14760561 0.618735712,5.66925819 C0.552024515,5.1911832 0.769598885,4.70006617 1.203853,4.43559322 L7.96099117,0.320306215 C8.46582931,0.0128456011 9.12432756,0.172851704 9.43178818,0.677689848 Z" id="Combined-Shape"></path>
                    </g>
                </g>
            </g>
        </g>
    </g>
</svg>