<?xml version="1.0" encoding="UTF-8"?>
<svg width="23px" height="23px" viewBox="0 0 23 23" version="1.1" xmlns="http://www.w3.org/2000/svg" xmlns:xlink="http://www.w3.org/1999/xlink">
    <!-- Generator: Sketch 57.1 (83088) - https://sketch.com -->
    <title>Shape</title>
    <desc>Created with Sketch.</desc>
    <g id="PsicoLab---VR-Test" stroke="none" stroke-width="1" fill="none" fill-rule="evenodd">
        <g id="PL---V2-Copy-16" transform="translate(-1284.000000, -279.000000)" fill="#FFFFFF" fill-rule="nonzero">
            <path d="M1295.5,280.916667 C1300.78425,280.916667 1305.08333,285.21575 1305.08333,290.5 C1305.08333,295.78425 1300.78425,300.083333 1295.5,300.083333 C1290.21575,300.083333 1285.91667,295.78425 1285.91667,290.5 C1285.91667,285.21575 1290.21575,280.916667 1295.5,280.916667 Z M1295.5,279 C1289.14912,279 1284,284.149125 1284,290.5 C1284,296.850875 1289.14912,302 1295.5,302 C1301.85088,302 1307,296.850875 1307,290.5 C1307,284.149125 1301.85088,279 1295.5,279 Z M1295.5,296.25 C1294.97073,296.25 1294.54167,295.82094 1294.54167,295.291667 L1294.54167,289.541667 C1294.54167,289.012394 1294.97073,288.583333 1295.5,288.583333 C1296.02927,288.583333 1296.45833,289.012394 1296.45833,289.541667 L1296.45833,295.291667 C1296.45833,295.82094 1296.02927,296.25 1295.5,296.25 Z M1295.5,284.510417 C1296.16125,284.510417 1296.69792,285.047083 1296.69792,285.708333 C1296.69792,286.369583 1296.16125,286.90625 1295.5,286.90625 C1294.83875,286.90625 1294.30208,286.369583 1294.30208,285.708333 C1294.30208,285.047083 1294.83875,284.510417 1295.5,284.510417 Z" id="Shape"></path>
        </g>
    </g>
</svg>