<?xml version="1.0" encoding="UTF-8"?>
<svg width="299px" height="352px" viewBox="0 0 299 352" version="1.1" xmlns="http://www.w3.org/2000/svg" xmlns:xlink="http://www.w3.org/1999/xlink">
    <!-- Generator: Sketch 57.1 (83088) - https://sketch.com -->
    <title>Group 7</title>
    <desc>Created with Sketch.</desc>
    <g id="Symbols" stroke="none" stroke-width="1" fill="none" fill-rule="evenodd">
        <g id="UI-/-Icons-/-RV">
            <g id="Group-7">
                <g id="Group-4-Copy" transform="translate(35.000000, 13.000000)">
                    <rect id="Rectangle" stroke="#7C6BFF" stroke-width="2" fill="#ECECEC" x="1" y="1" width="262" height="337" rx="4"></rect>
                    <g id="Group-3" transform="translate(2.000000, 29.000000)">
                        <g id="Group-6">
                            <g id="Question-section">
                                <rect id="Rectangle" fill-rule="nonzero" x="0" y="10" width="260" height="68"></rect>
                                <g id="Group-5" transform="translate(29.000000, 40.000000)" fill="#B9B7C8">
                                    <rect id="Rectangle" x="0" y="0" width="80" height="6"></rect>
                                    <rect id="Rectangle-Copy" x="122" y="0" width="80" height="6"></rect>
                                    <rect id="Rectangle-Copy-2" x="0" y="20" width="80" height="6"></rect>
                                    <rect id="Rectangle-Copy-3" x="122" y="20" width="80" height="6"></rect>
                                </g>
                                <rect id="Rectangle" fill="#B9B7C8" x="60" y="10" width="141" height="6"></rect>
                                <g id="mark" transform="translate(10.000000, 0.000000)">
                                    <circle id="Oval" fill="#C0B8FF" cx="12.5" cy="12.5" r="12.5"></circle>
                                    <g id="Group-2" transform="translate(12.000000, 12.500000) rotate(42.000000) translate(-12.000000, -12.500000) translate(9.000000, 8.000000)" fill="#FFFFFF" fill-rule="nonzero">
                                        <rect id="Rectangle" x="3.6143422" y="0" width="2" height="8" rx="1"></rect>
                                        <rect id="Rectangle-Copy-4" transform="translate(3.000000, 7.010338) rotate(90.000000) translate(-3.000000, -7.010338) " x="2" y="4.51033803" width="2" height="5" rx="1"></rect>
                                    </g>
                                </g>
                            </g>
                            <g id="Question-section-Copy" transform="translate(0.000000, 102.000000)">
                                <rect id="Rectangle" fill-rule="nonzero" x="0" y="10" width="260" height="68"></rect>
                                <g id="Group-5" transform="translate(29.000000, 40.000000)" fill="#B9B7C8">
                                    <rect id="Rectangle" x="0" y="0" width="80" height="6"></rect>
                                    <rect id="Rectangle-Copy" x="122" y="0" width="80" height="6"></rect>
                                    <rect id="Rectangle-Copy-2" x="0" y="20" width="80" height="6"></rect>
                                    <rect id="Rectangle-Copy-3" x="122" y="20" width="80" height="6"></rect>
                                </g>
                                <rect id="Rectangle" fill="#B9B7C8" x="60" y="10" width="141" height="6"></rect>
                                <g id="mark" transform="translate(10.000000, 0.000000)">
                                    <circle id="Oval" fill="#C0B8FF" cx="12.5" cy="12.5" r="12.5"></circle>
                                    <g id="Group-2" transform="translate(12.000000, 12.500000) rotate(42.000000) translate(-12.000000, -12.500000) translate(9.000000, 8.000000)" fill="#FFFFFF" fill-rule="nonzero">
                                        <rect id="Rectangle" x="3.6143422" y="0" width="2" height="8" rx="1"></rect>
                                        <rect id="Rectangle-Copy-4" transform="translate(3.000000, 7.010338) rotate(90.000000) translate(-3.000000, -7.010338) " x="2" y="4.51033803" width="2" height="5" rx="1"></rect>
                                    </g>
                                </g>
                            </g>
                            <g id="Question-section-Copy-3" transform="translate(0.000000, 204.000000)">
                                <rect id="Rectangle" fill-rule="nonzero" x="0" y="10" width="260" height="68"></rect>
                                <g id="Group-5" transform="translate(29.000000, 40.000000)" fill="#B9B7C8">
                                    <rect id="Rectangle" x="0" y="0" width="80" height="6"></rect>
                                    <rect id="Rectangle-Copy" x="122" y="0" width="80" height="6"></rect>
                                    <rect id="Rectangle-Copy-2" x="0" y="20" width="80" height="6"></rect>
                                    <rect id="Rectangle-Copy-3" x="122" y="20" width="80" height="6"></rect>
                                </g>
                                <rect id="Rectangle" fill="#B9B7C8" x="60" y="10" width="141" height="6"></rect>
                                <g id="mark" transform="translate(10.000000, 0.000000)">
                                    <circle id="Oval" fill="#C0B8FF" cx="12.5" cy="12.5" r="12.5"></circle>
                                    <g id="Group-2" transform="translate(12.000000, 12.500000) rotate(42.000000) translate(-12.000000, -12.500000) translate(9.000000, 8.000000)" fill="#FFFFFF" fill-rule="nonzero">
                                        <rect id="Rectangle" x="3.6143422" y="0" width="2" height="8" rx="1"></rect>
                                        <rect id="Rectangle-Copy-4" transform="translate(3.000000, 7.010338) rotate(90.000000) translate(-3.000000, -7.010338) " x="2" y="4.51033803" width="2" height="5" rx="1"></rect>
                                    </g>
                                </g>
                            </g>
                        </g>
                    </g>
                </g>
                <g id="Group-4">
                    <rect id="Rectangle" stroke="#7C6BFF" stroke-width="2" fill="#FFFFFF" x="1" y="1" width="262" height="337" rx="4"></rect>
                    <g id="Group-3" transform="translate(2.000000, 34.000000)">
                        <g id="Group-6">
                            <g id="Question-section">
                                <rect id="Rectangle" fill-rule="nonzero" x="0" y="0" width="260" height="68"></rect>
                                <g id="Group-5" transform="translate(152.000000, 8.000000)">
                                    <rect id="Rectangle" fill="#B9B7C8" x="0" y="0" width="80" height="4"></rect>
                                    <rect id="Rectangle-Copy" fill="#C0B8FF" x="0" y="24" width="80" height="4"></rect>
                                    <rect id="Rectangle-Copy-2" fill="#B9B7C8" x="0" y="12" width="80" height="4"></rect>
                                    <rect id="Rectangle-Copy-3" fill="#B9B7C8" x="0" y="36" width="80" height="4"></rect>
                                    <rect id="Rectangle-Copy-5" fill="#B9B7C8" x="0" y="48" width="80" height="4"></rect>
                                </g>
                                <rect id="Rectangle" fill="#B9B7C8" x="46" y="31" width="82" height="6"></rect>
                                <g id="mark" transform="translate(10.000000, 22.000000)">
                                    <circle id="Oval" fill="#C0B8FF" cx="12.5" cy="12.5" r="12.5"></circle>
                                    <g id="Group-2" transform="translate(12.000000, 12.500000) rotate(42.000000) translate(-12.000000, -12.500000) translate(9.000000, 8.000000)" fill="#FFFFFF" fill-rule="nonzero">
                                        <rect id="Rectangle" x="3.6143422" y="0" width="2" height="8" rx="1"></rect>
                                        <rect id="Rectangle-Copy-4" transform="translate(3.000000, 7.010338) rotate(90.000000) translate(-3.000000, -7.010338) " x="2" y="4.51033803" width="2" height="5" rx="1"></rect>
                                    </g>
                                </g>
                            </g>
                            <g id="Question-section-Copy-2" transform="translate(0.000000, 100.000000)">
                                <rect id="Rectangle" fill-rule="nonzero" x="0" y="0" width="260" height="68"></rect>
                                <g id="Group-5" transform="translate(152.000000, 8.000000)">
                                    <rect id="Rectangle" fill="#B9B7C8" x="0" y="0" width="80" height="4"></rect>
                                    <rect id="Rectangle-Copy" fill="#C0B8FF" x="0" y="24" width="80" height="4"></rect>
                                    <rect id="Rectangle-Copy-2" fill="#B9B7C8" x="0" y="12" width="80" height="4"></rect>
                                    <rect id="Rectangle-Copy-3" fill="#B9B7C8" x="0" y="36" width="80" height="4"></rect>
                                    <rect id="Rectangle-Copy-5" fill="#B9B7C8" x="0" y="48" width="80" height="4"></rect>
                                </g>
                                <rect id="Rectangle" fill="#B9B7C8" x="46" y="31" width="82" height="6"></rect>
                                <g id="mark" transform="translate(10.000000, 22.000000)">
                                    <circle id="Oval" fill="#C0B8FF" cx="12.5" cy="12.5" r="12.5"></circle>
                                    <g id="Group-2" transform="translate(12.000000, 12.500000) rotate(42.000000) translate(-12.000000, -12.500000) translate(9.000000, 8.000000)" fill="#FFFFFF" fill-rule="nonzero">
                                        <rect id="Rectangle" x="3.6143422" y="0" width="2" height="8" rx="1"></rect>
                                        <rect id="Rectangle-Copy-4" transform="translate(3.000000, 7.010338) rotate(90.000000) translate(-3.000000, -7.010338) " x="2" y="4.51033803" width="2" height="5" rx="1"></rect>
                                    </g>
                                </g>
                            </g>
                            <g id="Question-section-Copy-4" transform="translate(0.000000, 200.000000)">
                                <rect id="Rectangle" fill-rule="nonzero" x="0" y="0" width="260" height="68"></rect>
                                <g id="Group-5" transform="translate(152.000000, 8.000000)">
                                    <rect id="Rectangle" fill="#B9B7C8" x="0" y="0" width="80" height="4"></rect>
                                    <rect id="Rectangle-Copy" fill="#C0B8FF" x="0" y="24" width="80" height="4"></rect>
                                    <rect id="Rectangle-Copy-2" fill="#B9B7C8" x="0" y="12" width="80" height="4"></rect>
                                    <rect id="Rectangle-Copy-3" fill="#B9B7C8" x="0" y="36" width="80" height="4"></rect>
                                    <rect id="Rectangle-Copy-5" fill="#B9B7C8" x="0" y="48" width="80" height="4"></rect>
                                </g>
                                <rect id="Rectangle" fill="#B9B7C8" x="46" y="31" width="82" height="6"></rect>
                                <g id="mark" transform="translate(10.000000, 22.000000)">
                                    <circle id="Oval" fill="#C0B8FF" cx="12.5" cy="12.5" r="12.5"></circle>
                                    <g id="Group-2" transform="translate(12.000000, 12.500000) rotate(42.000000) translate(-12.000000, -12.500000) translate(9.000000, 8.000000)" fill="#FFFFFF" fill-rule="nonzero">
                                        <rect id="Rectangle" x="3.6143422" y="0" width="2" height="8" rx="1"></rect>
                                        <rect id="Rectangle-Copy-4" transform="translate(3.000000, 7.010338) rotate(90.000000) translate(-3.000000, -7.010338) " x="2" y="4.51033803" width="2" height="5" rx="1"></rect>
                                    </g>
                                </g>
                            </g>
                        </g>
                    </g>
                </g>
            </g>
        </g>
    </g>
</svg>